<?xml version="1.0" encoding="UTF-8" standalone="no"?>
<!DOCTYPE svg PUBLIC "-//W3C//DTD SVG 1.1//EN" "http://www.w3.org/Graphics/SVG/1.1/DTD/svg11.dtd">
<svg width="100%" height="100%" viewBox="0 0 1000 1000" version="1.1" xmlns="http://www.w3.org/2000/svg" xmlns:xlink="http://www.w3.org/1999/xlink" xml:space="preserve" xmlns:serif="http://www.serif.com/" style="fill-rule:evenodd;clip-rule:evenodd;stroke-linejoin:round;stroke-miterlimit:1.41421;">
    <g transform="matrix(2.41896,0,0,4.22995,-513.761,-1518.72)">
        <ellipse cx="419.09" cy="477.244" rx="206.7" ry="118.205" style="fill:rgb(189,26,26);"/>
        <clipPath id="_clip1">
            <ellipse cx="419.09" cy="477.244" rx="206.7" ry="118.205"/>
        </clipPath>
        <g clip-path="url(#_clip1)">
            <g transform="matrix(0.413401,0,0,0.23641,151.242,352.763)">
                <path d="M193.426,328.572C281.143,492.97 405.503,235.566 537.295,298.23C662.68,357.848 682.084,442.351 423.515,496.713C241.576,534.964 146.498,454.234 127.686,436.031C87.465,397.11 88.588,314.907 135.272,296.966C198.94,272.498 181.988,307.135 193.426,328.572Z" style="fill:rgb(86,0,18);"/>
            </g>
            <g transform="matrix(0.677686,-0.231831,0.212224,0.20288,-136.925,549.248)">
                <path d="M707.332,782.427C820.018,782.427 911.504,834.26 911.504,898.104C911.504,961.947 820.018,1013.78 707.332,1013.78C594.647,1013.78 503.161,961.947 503.161,898.104C503.161,834.26 594.647,782.427 707.332,782.427ZM707.332,840.266C763.675,840.266 809.418,866.182 809.418,898.104C809.418,930.026 763.675,955.942 707.332,955.942C650.99,955.942 605.247,930.026 605.247,898.104C605.247,866.182 650.99,840.266 707.332,840.266Z" style="fill:rgb(86,0,18);"/>
            </g>
            <g transform="matrix(0.245866,-0.0596886,0.161543,0.217613,324.576,454.886)">
                <path d="M1147.91,95.955C1147.91,95.955 850.731,95.955 728.211,95.955C699.574,95.955 676.359,110.954 676.359,129.457C676.359,139.246 676.359,150.374 676.359,161.694C676.359,204.285 729.797,238.812 795.715,238.812C935.415,238.812 1147.91,238.812 1147.91,238.812L1147.91,95.955Z" style="fill:rgb(86,0,18);"/>
            </g>
        </g>
    </g>
</svg>
