<?xml version="1.0" encoding="UTF-8" standalone="no"?>
<!DOCTYPE svg PUBLIC "-//W3C//DTD SVG 1.1//EN" "http://www.w3.org/Graphics/SVG/1.1/DTD/svg11.dtd">
<svg width="100%" height="100%" viewBox="0 0 1000 1000" version="1.1" xmlns="http://www.w3.org/2000/svg" xmlns:xlink="http://www.w3.org/1999/xlink" xml:space="preserve" xmlns:serif="http://www.serif.com/" style="fill-rule:evenodd;clip-rule:evenodd;stroke-linejoin:round;stroke-miterlimit:1.41421;">
    <g transform="matrix(3.30962,0,0,7,-690.377,-2495.58)">
        <ellipse cx="359.671" cy="427.939" rx="151.075" ry="71.429" style="fill:rgb(137,0,255);"/>
        <clipPath id="_clip1">
            <ellipse cx="359.671" cy="427.939" rx="151.075" ry="71.429"/>
        </clipPath>
        <g clip-path="url(#_clip1)">
            <g transform="matrix(-0.0682509,-0.206974,0.619083,-0.0456355,140.002,425.197)">
                <path d="M199.115,112.516C131.783,112.516 77.118,220.147 77.118,352.718C77.118,485.289 131.783,592.92 199.115,592.92C178.915,536.873 162.516,448.537 162.516,352.718C162.516,256.9 178.915,168.563 199.115,112.516Z" style="fill:rgb(179,93,255);"/>
            </g>
            <g transform="matrix(0.289972,0.0401475,-0.0849138,0.1371,225.526,342.305)">
                <path d="M618.205,694.058C928.003,694.058 1179.52,773.326 1179.52,870.961C1179.52,968.596 928.003,1047.86 618.205,1047.86C308.407,1047.86 56.89,968.596 56.89,870.961C56.89,773.326 308.407,694.058 618.205,694.058ZM618.205,782.509C773.104,782.509 898.862,822.143 898.862,870.961C898.862,919.778 773.104,959.412 618.205,959.412C463.306,959.412 337.547,919.778 337.547,870.961C337.547,822.143 463.306,782.509 618.205,782.509Z" style="fill:rgb(197,130,255);"/>
            </g>
            <g transform="matrix(0.210058,-0.0202195,0.0492701,0.114423,282.635,388.892)">
                <path d="M1208.6,489.709C1208.6,449.589 1171.07,417.016 1124.85,417.016L691.841,417.016C645.618,417.016 608.091,449.589 608.091,489.709C608.091,529.829 645.618,562.402 691.841,562.402L1124.85,562.402C1171.07,562.402 1208.6,529.829 1208.6,489.709Z" style="fill:rgb(192,119,255);"/>
            </g>
        </g>
    </g>
    <path d="M612.828,12.892C720.721,-15.677 813.489,-1.757 873.446,52.764C1009.62,176.596 942.557,472.466 723.773,713.063C504.988,953.659 216.804,1048.46 80.627,924.625C16.133,865.979 -5.19,765.089 21.078,643.646C34.82,689.472 55.156,733.402 81.723,773.957C91.192,810.916 108.936,841.969 134.583,865.29C252.225,972.267 501.184,890.372 690.189,682.524C879.195,474.675 937.132,219.077 819.49,112.1C807.315,101.029 793.575,91.896 778.467,84.722C732.923,54.182 682.576,31.283 629.41,17.037C623.885,15.557 618.357,14.175 612.828,12.892Z" style="fill:rgb(93,121,254);"/>
</svg>
