<?xml version="1.0" encoding="UTF-8" standalone="no"?>
<!DOCTYPE svg PUBLIC "-//W3C//DTD SVG 1.1//EN" "http://www.w3.org/Graphics/SVG/1.1/DTD/svg11.dtd">
<svg width="100%" height="100%" viewBox="0 0 1000 1000" version="1.1" xmlns="http://www.w3.org/2000/svg" xmlns:xlink="http://www.w3.org/1999/xlink" xml:space="preserve" xmlns:serif="http://www.serif.com/" style="fill-rule:evenodd;clip-rule:evenodd;stroke-linejoin:round;stroke-miterlimit:1.41421;">
    <g transform="matrix(1.80182,0,0,3.05405,-211.845,-779.923)">
        <ellipse cx="395.07" cy="419.09" rx="277.497" ry="163.717" style="fill:rgb(0,194,255);"/>
        <clipPath id="_clip1">
            <ellipse cx="395.07" cy="419.09" rx="277.497" ry="163.717"/>
        </clipPath>
        <g clip-path="url(#_clip1)">
            <g transform="matrix(0.688958,0,0,0.368169,100.177,207.285)">
                <path d="M250.316,174.463C189.612,174.463 140.329,354.32 140.329,575.853C140.329,797.387 189.612,977.244 250.316,977.244C226.147,896.718 206.525,744.582 206.525,575.853C206.525,407.124 226.147,254.989 250.316,174.463Z" style="fill:rgb(9,171,222);"/>
            </g>
            <g transform="matrix(-0.688958,4.97781e-17,-7.64229e-17,-0.368169,740.48,631.308)">
                <path d="M250.316,174.463C189.612,174.463 140.329,354.32 140.329,575.853C140.329,797.387 189.612,977.244 250.316,977.244C226.147,896.718 206.525,744.582 206.525,575.853C206.525,407.124 226.147,254.989 250.316,174.463Z" style="fill:rgb(9,171,222);"/>
            </g>
            <g transform="matrix(-0.688958,4.97781e-17,-8.37012e-17,-0.403233,660.493,652.742)">
                <path d="M250.316,174.463C189.612,174.463 140.329,354.32 140.329,575.853C140.329,797.387 189.612,977.244 250.316,977.244C214.906,921.495 186.157,760.83 186.157,575.853C186.157,390.877 214.906,230.211 250.316,174.463Z" style="fill:rgb(9,171,222);"/>
            </g>
            <g transform="matrix(0.554994,0,0,0.327434,89.5073,244.196)">
                <path d="M610.619,25.765C628.761,110.208 643.489,308.164 643.489,532.424C643.489,756.684 628.761,954.64 610.619,1039.08C646.902,1039.08 676.359,812.057 676.359,532.424C676.359,252.791 646.902,25.765 610.619,25.765Z" style="fill:rgb(9,171,222);"/>
            </g>
            <g transform="matrix(0.554994,0,0,0.339294,178.615,247.284)">
                <path d="M306.574,18.856C269.245,18.856 238.938,238.966 238.938,510.079C238.938,781.192 269.245,1001.3 306.574,1001.3C297.242,878.496 289.665,700.663 289.665,510.079C289.665,319.495 297.242,141.662 306.574,18.856Z" style="fill:rgb(9,171,222);"/>
            </g>
            <g transform="matrix(0.554994,0,0,0.388038,105.645,197.984)">
                <path d="M92.92,339.039C45.823,339.039 7.585,449.219 7.585,584.93C7.585,720.642 45.823,830.822 92.92,830.822C78.791,773.447 67.32,683.018 67.32,584.93C67.32,486.842 78.791,396.414 92.92,339.039Z" style="fill:rgb(9,171,222);"/>
            </g>
        </g>
    </g>
</svg>
