<?xml version="1.0" encoding="UTF-8" standalone="no"?>
<!DOCTYPE svg PUBLIC "-//W3C//DTD SVG 1.1//EN" "http://www.w3.org/Graphics/SVG/1.1/DTD/svg11.dtd">
<svg width="100%" height="100%" viewBox="0 0 1000 1000" version="1.1" xmlns="http://www.w3.org/2000/svg" xmlns:xlink="http://www.w3.org/1999/xlink" xml:space="preserve" xmlns:serif="http://www.serif.com/" style="fill-rule:evenodd;clip-rule:evenodd;stroke-linejoin:round;stroke-miterlimit:1.41421;">
    <g transform="matrix(3.164,0,0,3.18952,-916,-1173.39)">
        <ellipse cx="447.535" cy="524.652" rx="158.028" ry="156.764" style="fill:url(#_Radial1);"/>
        <clipPath id="_clip2">
            <ellipse cx="447.535" cy="524.652" rx="158.028" ry="156.764"/>
        </clipPath>
        <g clip-path="url(#_clip2)">
            <g transform="matrix(-0.189515,0.25091,-0.252933,-0.187999,547.912,354.582)">
                <path d="M425.315,106.416C431.443,93.024 444.818,84.436 459.545,84.436C474.272,84.436 487.647,93.024 493.774,106.416C546.983,222.707 643.489,433.628 643.489,433.628L275.601,433.628C275.601,433.628 372.107,222.707 425.315,106.416Z" style="fill:rgb(32,151,65);"/>
            </g>
            <g transform="matrix(0.253826,0.186811,-0.16432,0.219709,358.864,337.418)">
                <path d="M270.544,255.541C270.544,186.371 221.543,130.215 161.188,130.215C100.834,130.215 51.833,186.371 51.833,255.541L51.833,458.745C51.833,527.914 100.834,584.071 161.188,584.071C221.543,584.071 270.544,527.914 270.544,458.745L270.544,255.541Z" style="fill:rgb(32,151,65);"/>
            </g>
            <g transform="matrix(-0.256529,0.183141,-0.205258,-0.282927,831.804,776.699)">
                <path d="M520.228,771.745C550.695,822.63 367.889,815.108 367.889,873.515C367.889,929.683 436.149,975.284 520.228,975.284C604.306,975.284 672.566,929.683 672.566,873.515C672.566,815.108 596.397,771.745 520.228,771.745Z" style="fill:rgb(32,151,65);"/>
            </g>
            <g transform="matrix(0.316056,0,0,0.313527,268.73,357.98)">
                <ellipse cx="919.09" cy="201.327" rx="75.853" ry="140.961" style="fill:rgb(32,151,65);"/>
            </g>
        </g>
    </g>
    <defs>
        <radialGradient id="_Radial1" cx="0" cy="0" r="1" gradientUnits="userSpaceOnUse" gradientTransform="matrix(158.028,0,0,156.764,447.535,524.652)"><stop offset="0" style="stop-color:rgb(15,24,255);stop-opacity:1"/><stop offset="0.63" style="stop-color:rgb(14,37,247);stop-opacity:1"/><stop offset="0.83" style="stop-color:rgb(10,69,228);stop-opacity:1"/><stop offset="1" style="stop-color:rgb(6,104,206);stop-opacity:1"/></radialGradient>
    </defs>
</svg>
